<svg width="185" height="84" viewBox="0 0 185 84" fill="none" xmlns="http://www.w3.org/2000/svg">
<g clip-path="url(#clip0_992_2)">
<path d="M31.7246 36.5352C30.8639 38.1931 30.372 40.0352 30.372 42.0001C30.372 43.965 30.8639 45.8071 31.7246 47.465L7.07027 65.3334C-2.15206 51.579 -2.58244 33.0966 7.07027 18.6667L31.7246 36.5352Z" fill="#F3D112"/>
<path d="M76.1152 17.3158L51.5223 35.1228C49.3704 32.2368 45.9274 30.3333 42.054 30.3333C38.734 30.3333 35.7829 31.6842 33.6925 33.8947L9.03809 16.0263C22.9331 -1.5965 48.4482 -5.28072 66.7699 8.04385C70.5203 10.7456 73.3485 13.5702 76.1152 17.3158Z" fill="#DA1F26"/>
<path d="M38.611 53.1754L33.8154 83.2017C28.0361 82.0351 22.3797 79.6403 17.2767 75.9561C14.0796 73.6228 11.3129 70.921 8.97656 67.9736L33.6309 50.1052C35.045 51.5175 36.705 52.5614 38.611 53.1754Z" fill="#27326F"/>
<path d="M45.6193 53.114L59.0224 80.4386C52.1364 83.4473 44.5741 84.614 37.1348 83.693L41.9304 53.6666C41.9919 53.6666 42.0533 53.6666 42.1148 53.6666C43.283 53.6666 44.5126 53.4824 45.6193 53.114Z" fill="#4A9FBE"/>
<path d="M76.1144 66.6841C72.241 71.9648 67.3839 76.0788 61.9735 79.0262L48.6318 51.6402C49.7385 50.9034 50.7222 49.9209 51.5215 48.8157L76.1144 66.6841Z" fill="#DABC8B"/>
<path d="M88.4725 62.3246V66.3158H86.751V55.5088H91.5466C92.5918 55.5088 93.4525 55.8158 94.1288 56.4912C94.8051 57.1053 95.174 57.9649 95.174 58.9474C95.174 59.9298 94.8051 60.7281 94.1288 61.3421C93.4525 62.0176 92.5918 62.3246 91.5466 62.3246H88.4725ZM91.4851 57.1053H88.411V60.7281H91.4851C91.977 60.7281 92.4073 60.5439 92.7762 60.2369C93.1451 59.8684 93.3296 59.4386 93.3296 58.9474C93.3296 58.4562 93.1451 58.0263 92.7762 57.6579C92.4073 57.2895 92.0384 57.1053 91.4851 57.1053Z" fill="white"/>
<path d="M98.8015 66.2544H97.0186L101.691 55.5088H103.105L107.778 66.2544H105.995L105.011 64.0439H99.8467L98.8015 66.2544ZM104.273 62.4474L102.368 57.9649L100.462 62.4474H104.273Z" fill="white"/>
<path d="M111.713 55.5088H116.631C117.677 55.5088 118.537 55.8158 119.214 56.4912C119.89 57.1053 120.259 57.9649 120.259 58.9474C120.259 59.6228 120.074 60.2983 119.644 60.8509C119.275 61.4035 118.722 61.8333 118.107 62.079L120.689 66.3158H118.722L116.324 62.3246H113.434V66.3158H111.713V55.5088V55.5088ZM116.631 57.1053H113.434V60.7281H116.631C117.123 60.7281 117.554 60.5439 117.923 60.2369C118.291 59.8684 118.476 59.4386 118.476 58.9474C118.476 58.4562 118.291 58.0263 117.923 57.6579C117.554 57.2895 117.123 57.1053 116.631 57.1053Z" fill="white"/>
<path d="M125.239 66.2544V55.5088H126.961V60.6667L131.449 55.5088H133.662L129.113 60.7895L134.031 66.3158H131.818L127.022 60.9123V66.3158H125.239V66.2544Z" fill="white"/>
<path d="M98.6173 17.5613C101.568 17.5613 104.212 18.2981 106.549 19.7104C108.885 21.1227 110.606 23.0876 111.774 25.5437L104.888 28.0613C104.335 26.8946 103.474 25.9736 102.368 25.3595C101.261 24.6841 100.031 24.3771 98.6173 24.3771C96.6499 24.3771 94.9899 25.0525 93.6372 26.4648C92.3461 27.8157 91.6698 29.535 91.6698 31.5613C91.6698 33.649 92.3461 35.3683 93.6372 36.7806C94.9899 38.1315 96.6499 38.8069 98.6173 38.8069C100.031 38.8069 101.261 38.4999 102.368 37.8244C103.474 37.149 104.274 36.2279 104.888 35.0613L111.774 37.6402C110.606 40.0964 108.885 42.0613 106.549 43.4736C104.212 44.9472 101.568 45.6227 98.6173 45.6227C94.5595 45.6227 91.1165 44.2718 88.3498 41.5701C85.5831 38.9297 84.2305 35.5525 84.2305 31.5613C84.2305 27.5701 85.5831 24.2543 88.3498 21.5525C91.178 18.9122 94.5595 17.5613 98.6173 17.5613Z" fill="white"/>
<path d="M125.732 18.0527H118.6V45.1931H125.732V18.0527Z" fill="white"/>
<path d="M139.626 24.5615H131.94V18.0527H154.443V24.5615H146.758V45.1317H139.626V24.5615Z" fill="white"/>
<path d="M167.662 45.1317V33.9562L157.702 18.0527H165.818L171.228 27.2633L176.885 18.0527H185L174.794 33.7106V45.1317H167.662Z" fill="white"/>
</g>
<defs>
<clipPath id="clip0_992_2">
<rect width="185" height="84" fill="white"/>
</clipPath>
</defs>
</svg>
